<mxfile host="app.diagrams.net" modified="2023-08-28T19:19:14.041Z" agent="Mozilla/5.0 (Windows NT 10.0; Win64; x64) AppleWebKit/537.36 (KHTML, like Gecko) Chrome/114.0.0.0 YaBrowser/23.7.3.824 Yowser/2.5 Safari/537.36" version="21.6.9" etag="EMfbZ6Zwevy25zGhe8HM" type="github">
  <diagram name="Страница — 1" id="A_OYYlP8G9BryVEUOj4Q">
    <mxGraphModel>
      <root>
        <mxCell id="0" />
        <mxCell id="1" parent="0" />
      </root>
    </mxGraphModel>
  </diagram>
</mxfile>
